<svg width="1797.3" height="119.7" viewBox="0 0 1797.3 119.7" xmlns="http://www.w3.org/2000/svg"><g id="svgGroup" stroke-linecap="round" fill-rule="evenodd" font-size="9pt" stroke="#000" stroke-width="0.25mm" fill="#000" style="stroke:#000;stroke-width:0.25mm;fill:#000"><path d="M 335.3 51.8 L 339.4 50 Q 343.635 58.878 348.268 65.035 A 55.818 55.818 0 0 0 350.4 67.7 Q 354.508 72.517 359.068 73.921 A 12.943 12.943 0 0 0 362.9 74.5 Q 366.706 74.5 368.961 72.475 A 7.292 7.292 0 0 0 369.3 72.15 A 7.787 7.787 0 0 0 371.6 66.513 A 9.433 9.433 0 0 0 371.6 66.5 Q 371.6 63.3 369.15 60.25 Q 367.131 57.736 363.447 55.8 A 29.563 29.563 0 0 0 361.8 55 L 359.1 49.2 L 359.1 48.1 L 389.2 48.1 L 389.3 36.6 L 333.7 36.6 L 330.3 30.1 L 330.3 29.1 L 406 29.1 L 409.4 35.6 L 409.4 36.6 L 397.7 36.6 L 397.9 92.1 L 396.9 92.1 L 388.9 86.9 L 389.1 55.6 L 371.4 55.6 Q 374.423 58.699 376.332 61.397 A 27.897 27.897 0 0 1 377.45 63.1 Q 379.5 66.5 379.5 70.3 A 13.002 13.002 0 0 1 379.1 73.598 A 10.203 10.203 0 0 1 377.55 76.95 Q 375.6 79.7 372.45 81.15 Q 369.3 82.6 365.6 82.6 Q 360.5 82.6 356.15 80.05 A 29.786 29.786 0 0 1 350.476 75.693 A 36.412 36.412 0 0 1 348.1 73.15 A 62.23 62.23 0 0 1 343.065 66.303 A 73.038 73.038 0 0 1 341.25 63.3 Q 338.1 57.8 335.3 51.8 Z M 1169.3 47.9 L 1169.3 49 Q 1168.337 49.096 1167.884 49.146 A 39.346 39.346 0 0 0 1167.85 49.15 A 7.57 7.57 0 0 1 1167.428 49.184 Q 1167.137 49.2 1166.8 49.2 Q 1162.1 49.2 1159.35 46.25 Q 1156.6 43.3 1156.6 39.3 A 10.613 10.613 0 0 1 1159.916 31.522 A 14.116 14.116 0 0 1 1160.25 31.2 Q 1163.9 27.8 1169.8 27.8 A 16.381 16.381 0 0 1 1175.692 28.84 A 15.216 15.216 0 0 1 1179 30.6 Q 1183 33.4 1185.3 37.55 A 19.54 19.54 0 0 1 1186.948 41.4 A 14.906 14.906 0 0 1 1187.6 45.7 A 12.431 12.431 0 0 1 1187.138 49.159 A 10.094 10.094 0 0 1 1185.35 52.65 A 16.105 16.105 0 0 1 1182.366 55.528 Q 1180.935 56.604 1179.157 57.521 A 26.733 26.733 0 0 1 1179.1 57.55 Q 1175.1 59.6 1169.9 61.5 A 9.44 9.44 0 0 0 1170.322 64.371 A 8.103 8.103 0 0 0 1171.5 66.7 A 10.729 10.729 0 0 0 1175.223 69.886 A 12.778 12.778 0 0 0 1175.75 70.15 Q 1178.4 71.4 1181.3 71.4 A 16.917 16.917 0 0 0 1186.631 70.501 A 23.186 23.186 0 0 0 1190.4 68.85 Q 1195.1 66.3 1198.9 62.5 L 1199.1 36.6 L 1191.9 36.6 L 1188.5 30.1 L 1188.5 29.1 L 1215.8 29.1 L 1219.2 35.6 L 1219.2 36.6 L 1207.5 36.6 L 1207.7 92.1 L 1206.7 92.1 L 1198.7 86.9 L 1198.8 72.8 A 36.721 36.721 0 0 1 1196.034 74.661 Q 1193.8 76.013 1191.8 76.7 Q 1188.6 77.8 1185.1 77.8 Q 1179.1 77.8 1174.1 74.75 A 27.027 27.027 0 0 1 1165.867 66.87 A 31.078 31.078 0 0 1 1165.65 66.55 Q 1162.2 61.4 1160.9 55.3 Q 1167.201 53.5 1171.68 51.484 A 41.045 41.045 0 0 0 1175.3 49.65 A 12.24 12.24 0 0 0 1178.18 47.415 A 8.926 8.926 0 0 0 1180.6 41.1 A 9.038 9.038 0 0 0 1180.442 39.346 Q 1180.246 38.358 1179.808 37.612 A 4.146 4.146 0 0 0 1178.6 36.3 A 7.701 7.701 0 0 0 1175.191 34.993 A 10.084 10.084 0 0 0 1173.8 34.9 A 11.353 11.353 0 0 0 1169.967 35.583 A 13.205 13.205 0 0 0 1169.4 35.8 A 10.238 10.238 0 0 0 1167.178 37.034 A 8.682 8.682 0 0 0 1165.8 38.3 Q 1164.4 39.9 1164.4 42.1 A 5.211 5.211 0 0 0 1164.629 43.681 A 4.162 4.162 0 0 0 1165.9 45.6 A 17.478 17.478 0 0 0 1168.602 47.514 A 19.855 19.855 0 0 0 1169.3 47.9 Z M 97.3 88.6 L 93 92.1 L 92 92.1 Q 86.287 84.697 82.127 78.459 A 158.897 158.897 0 0 1 80.2 75.5 A 36.802 36.802 0 0 1 77.524 70.531 Q 75.5 65.9 75.5 61.7 A 14.889 14.889 0 0 1 76.104 57.327 A 10.874 10.874 0 0 1 81.25 50.95 Q 87 47.6 96.5 47.6 L 110.6 47.6 L 110.7 36.6 L 71.3 36.6 L 67.9 30.1 L 67.9 29.1 L 127.4 29.1 L 130.8 35.6 L 130.8 36.6 L 119.1 36.6 L 119.3 92.1 L 118.3 92.1 L 110.3 86.9 L 110.5 55.1 L 97.6 55.1 A 26.051 26.051 0 0 0 93.598 55.386 Q 91.558 55.704 89.926 56.375 A 10.645 10.645 0 0 0 86.75 58.35 A 10.92 10.92 0 0 0 84.06 62.025 A 10.532 10.532 0 0 0 83.2 66.3 Q 83.2 68.5 83.85 70.5 Q 84.5 72.5 86.05 74.9 Q 87.6 77.3 90.35 80.55 Q 93.034 83.721 97.098 88.369 A 1131.44 1131.44 0 0 0 97.3 88.6 Z M 491.4 88.6 L 487.1 92.1 L 486.1 92.1 Q 480.387 84.697 476.227 78.459 A 158.897 158.897 0 0 1 474.3 75.5 A 36.802 36.802 0 0 1 471.624 70.531 Q 469.6 65.9 469.6 61.7 A 14.889 14.889 0 0 1 470.204 57.327 A 10.874 10.874 0 0 1 475.35 50.95 Q 481.1 47.6 490.6 47.6 L 504.7 47.6 L 504.8 36.6 L 465.4 36.6 L 462 30.1 L 462 29.1 L 521.5 29.1 L 524.9 35.6 L 524.9 36.6 L 513.2 36.6 L 513.4 92.1 L 512.4 92.1 L 504.4 86.9 L 504.6 55.1 L 491.7 55.1 A 26.051 26.051 0 0 0 487.698 55.386 Q 485.658 55.704 484.026 56.375 A 10.645 10.645 0 0 0 480.85 58.35 A 10.92 10.92 0 0 0 478.16 62.025 A 10.532 10.532 0 0 0 477.3 66.3 Q 477.3 68.5 477.95 70.5 Q 478.6 72.5 480.15 74.9 Q 481.7 77.3 484.45 80.55 Q 487.134 83.721 491.198 88.369 A 1131.44 1131.44 0 0 0 491.4 88.6 Z M 715.4 88.6 L 711.1 92.1 L 710.1 92.1 Q 704.387 84.697 700.227 78.459 A 158.897 158.897 0 0 1 698.3 75.5 A 36.802 36.802 0 0 1 695.624 70.531 Q 693.6 65.9 693.6 61.7 A 14.889 14.889 0 0 1 694.204 57.327 A 10.874 10.874 0 0 1 699.35 50.95 Q 705.1 47.6 714.6 47.6 L 728.7 47.6 L 728.8 36.6 L 689.4 36.6 L 686 30.1 L 686 29.1 L 745.5 29.1 L 748.9 35.6 L 748.9 36.6 L 737.2 36.6 L 737.4 92.1 L 736.4 92.1 L 728.4 86.9 L 728.6 55.1 L 715.7 55.1 A 26.051 26.051 0 0 0 711.698 55.386 Q 709.658 55.704 708.026 56.375 A 10.645 10.645 0 0 0 704.85 58.35 A 10.92 10.92 0 0 0 702.16 62.025 A 10.532 10.532 0 0 0 701.3 66.3 Q 701.3 68.5 701.95 70.5 Q 702.6 72.5 704.15 74.9 Q 705.7 77.3 708.45 80.55 Q 711.134 83.721 715.198 88.369 A 1131.44 1131.44 0 0 0 715.4 88.6 Z M 866.6 88.6 L 862.3 92.1 L 861.3 92.1 Q 855.587 84.697 851.427 78.459 A 158.897 158.897 0 0 1 849.5 75.5 A 36.802 36.802 0 0 1 846.824 70.531 Q 844.8 65.9 844.8 61.7 A 14.889 14.889 0 0 1 845.404 57.327 A 10.874 10.874 0 0 1 850.55 50.95 Q 856.3 47.6 865.8 47.6 L 879.9 47.6 L 880 36.6 L 840.6 36.6 L 837.2 30.1 L 837.2 29.1 L 896.7 29.1 L 900.1 35.6 L 900.1 36.6 L 888.4 36.6 L 888.6 92.1 L 887.6 92.1 L 879.6 86.9 L 879.8 55.1 L 866.9 55.1 A 26.051 26.051 0 0 0 862.898 55.386 Q 860.858 55.704 859.226 56.375 A 10.645 10.645 0 0 0 856.05 58.35 A 10.92 10.92 0 0 0 853.36 62.025 A 10.532 10.532 0 0 0 852.5 66.3 Q 852.5 68.5 853.15 70.5 Q 853.8 72.5 855.35 74.9 Q 856.9 77.3 859.65 80.55 Q 862.334 83.721 866.398 88.369 A 1131.44 1131.44 0 0 0 866.6 88.6 Z M 1382.1 88.6 L 1377.8 92.1 L 1376.8 92.1 Q 1371.087 84.697 1366.927 78.459 A 158.897 158.897 0 0 1 1365 75.5 A 36.802 36.802 0 0 1 1362.324 70.531 Q 1360.3 65.9 1360.3 61.7 A 14.889 14.889 0 0 1 1360.904 57.327 A 10.874 10.874 0 0 1 1366.05 50.95 Q 1371.8 47.6 1381.3 47.6 L 1395.4 47.6 L 1395.5 36.6 L 1356.1 36.6 L 1352.7 30.1 L 1352.7 29.1 L 1412.2 29.1 L 1415.6 35.6 L 1415.6 36.6 L 1403.9 36.6 L 1404.1 92.1 L 1403.1 92.1 L 1395.1 86.9 L 1395.3 55.1 L 1382.4 55.1 A 26.051 26.051 0 0 0 1378.398 55.386 Q 1376.358 55.704 1374.726 56.375 A 10.645 10.645 0 0 0 1371.55 58.35 A 10.92 10.92 0 0 0 1368.86 62.025 A 10.532 10.532 0 0 0 1368 66.3 Q 1368 68.5 1368.65 70.5 Q 1369.3 72.5 1370.85 74.9 Q 1372.4 77.3 1375.15 80.55 Q 1377.834 83.721 1381.898 88.369 A 1131.44 1131.44 0 0 0 1382.1 88.6 Z M 1439.4 88.6 L 1435.1 92.1 L 1434.1 92.1 Q 1428.387 84.697 1424.227 78.459 A 158.897 158.897 0 0 1 1422.3 75.5 A 36.802 36.802 0 0 1 1419.624 70.531 Q 1417.6 65.9 1417.6 61.7 A 14.889 14.889 0 0 1 1418.204 57.327 A 10.874 10.874 0 0 1 1423.35 50.95 Q 1429.1 47.6 1438.6 47.6 L 1452.7 47.6 L 1452.8 36.6 L 1413.4 36.6 L 1410 30.1 L 1410 29.1 L 1469.5 29.1 L 1472.9 35.6 L 1472.9 36.6 L 1461.2 36.6 L 1461.4 92.1 L 1460.4 92.1 L 1452.4 86.9 L 1452.6 55.1 L 1439.7 55.1 A 26.051 26.051 0 0 0 1435.698 55.386 Q 1433.658 55.704 1432.026 56.375 A 10.645 10.645 0 0 0 1428.85 58.35 A 10.92 10.92 0 0 0 1426.16 62.025 A 10.532 10.532 0 0 0 1425.3 66.3 Q 1425.3 68.5 1425.95 70.5 Q 1426.6 72.5 1428.15 74.9 Q 1429.7 77.3 1432.45 80.55 Q 1435.134 83.721 1439.198 88.369 A 1131.44 1131.44 0 0 0 1439.4 88.6 Z M 1576.7 97.6 L 1571.5 100.9 L 1570.6 100.9 L 1561.4 84.8 Q 1558.6 85.6 1555.1 85.6 Q 1549.9 85.6 1545.1 83.45 Q 1540.3 81.3 1536.5 77.6 Q 1532.7 73.9 1530.5 69.25 Q 1528.3 64.6 1528.3 59.5 A 16.416 16.416 0 0 1 1528.599 56.266 Q 1529.19 53.326 1530.95 51.4 A 12.529 12.529 0 0 1 1534.82 48.573 A 17.722 17.722 0 0 1 1538.3 47.35 A 37.255 37.255 0 0 1 1542.719 46.564 Q 1544.997 46.291 1547.56 46.223 A 65.409 65.409 0 0 1 1549.3 46.2 L 1556.8 46.2 L 1556.8 36.6 L 1523.4 36.6 L 1520 30.1 L 1520 29.1 L 1574.9 29.1 L 1578.3 35.6 L 1578.3 36.6 L 1565 36.6 A 766.226 766.226 0 0 0 1565.044 44.695 A 835.486 835.486 0 0 0 1565.05 45.25 Q 1565.084 48.309 1565.095 50.778 A 488.873 488.873 0 0 1 1565.1 52.9 L 1563.9 53.7 L 1549.8 53.7 A 26.602 26.602 0 0 0 1545.718 53.994 Q 1542.097 54.557 1539.6 56.2 A 8.111 8.111 0 0 0 1535.912 62.124 A 12.058 12.058 0 0 0 1535.8 63.8 A 18.053 18.053 0 0 0 1536.192 67.654 A 13.478 13.478 0 0 0 1537.85 71.85 A 14.605 14.605 0 0 0 1540.992 75.522 A 13.346 13.346 0 0 0 1543.1 76.95 Q 1546.3 78.7 1549.8 78.7 A 21.108 21.108 0 0 0 1552.117 78.567 A 26.247 26.247 0 0 0 1553.65 78.35 Q 1555.7 78 1557.2 77.1 Q 1556.08 74.859 1555.352 72.967 A 33.3 33.3 0 0 1 1555.25 72.7 Q 1554.732 71.319 1554.572 70.224 A 6.395 6.395 0 0 1 1554.5 69.3 A 4.784 4.784 0 0 1 1554.579 68.397 Q 1554.676 67.894 1554.891 67.509 A 2.194 2.194 0 0 1 1555.45 66.85 A 3.291 3.291 0 0 1 1556.643 66.265 Q 1557.117 66.136 1557.679 66.108 A 6.415 6.415 0 0 1 1558 66.1 A 9.701 9.701 0 0 1 1560.118 66.349 Q 1561.1 66.569 1562.165 66.983 A 18.834 18.834 0 0 1 1563.15 67.4 A 18.046 18.046 0 0 1 1568.015 70.623 A 17.203 17.203 0 0 1 1568.15 70.75 A 8.175 8.175 0 0 1 1569.374 72.201 A 5.416 5.416 0 0 1 1570.3 75.2 A 4.02 4.02 0 0 1 1570.231 75.895 Q 1570.1 76.629 1569.724 77.664 A 22.731 22.731 0 0 1 1569.4 78.5 A 7.801 7.801 0 0 1 1568.156 80.529 Q 1567.261 81.605 1565.9 82.6 L 1576.7 97.6 Z M 39.5 88.9 L 34.4 93.1 L 33.4 93.1 L 15.7 71.5 Q 12.006 66.901 10.131 63.979 A 26.911 26.911 0 0 1 9.1 62.25 Q 7.422 59.141 7.4 56.958 A 5.745 5.745 0 0 1 7.4 56.9 Q 7.4 53.844 12.05 53.707 A 15.184 15.184 0 0 1 12.5 53.7 Q 13.648 53.7 15.471 53.817 A 106.79 106.79 0 0 1 16.65 53.9 Q 19.3 54.1 21.1 54.3 Q 21.534 52.132 21.704 49.4 A 52.668 52.668 0 0 0 21.75 48.55 A 164.28 164.28 0 0 0 21.841 46.232 Q 21.871 45.316 21.885 44.483 A 90.22 90.22 0 0 0 21.9 42.9 Q 21.9 40.7 21.85 39.25 Q 21.8 37.8 21.7 36.6 L 3.4 36.6 L 0 30.1 L 0 29.1 L 70.1 29.1 L 73.5 35.6 L 73.5 36.6 L 61.8 36.6 L 62 92.1 L 61 92.1 L 53 86.9 L 53.1 67.2 Q 49 68.7 44.5 68.7 Q 41.7 68.7 37.3 67.55 A 17.639 17.639 0 0 1 34.121 66.352 Q 30.941 64.819 27.2 61.8 A 10.306 10.306 0 0 1 22.228 66.303 A 16.047 16.047 0 0 1 18.7 67.4 L 39.5 88.9 Z M 808.8 88.9 L 803.7 93.1 L 802.7 93.1 L 785 71.5 Q 781.306 66.901 779.431 63.979 A 26.911 26.911 0 0 1 778.4 62.25 Q 776.722 59.141 776.7 56.958 A 5.745 5.745 0 0 1 776.7 56.9 Q 776.7 53.844 781.35 53.707 A 15.184 15.184 0 0 1 781.8 53.7 Q 782.948 53.7 784.771 53.817 A 106.79 106.79 0 0 1 785.95 53.9 Q 788.6 54.1 790.4 54.3 Q 790.834 52.132 791.004 49.4 A 52.668 52.668 0 0 0 791.05 48.55 A 164.28 164.28 0 0 0 791.141 46.232 Q 791.171 45.316 791.185 44.483 A 90.22 90.22 0 0 0 791.2 42.9 Q 791.2 40.7 791.15 39.25 Q 791.1 37.8 791 36.6 L 772.7 36.6 L 769.3 30.1 L 769.3 29.1 L 839.4 29.1 L 842.8 35.6 L 842.8 36.6 L 831.1 36.6 L 831.3 92.1 L 830.3 92.1 L 822.3 86.9 L 822.4 67.2 Q 818.3 68.7 813.8 68.7 Q 811 68.7 806.6 67.55 A 17.639 17.639 0 0 1 803.421 66.352 Q 800.241 64.819 796.5 61.8 A 10.306 10.306 0 0 1 791.528 66.303 A 16.047 16.047 0 0 1 788 67.4 L 808.8 88.9 Z M 1346.6 36.6 L 1346.8 92.6 L 1345.8 92.6 L 1337.8 87.4 L 1338.2 36.6 L 1329.4 36.6 L 1326 30.1 L 1326 29.1 L 1338.7 29.1 A 23.62 23.62 0 0 1 1337.001 25.987 A 18.843 18.843 0 0 1 1336.1 23.55 Q 1335.3 20.8 1335.3 18.2 Q 1335.3 14.2 1337.35 10.8 A 13.379 13.379 0 0 1 1340.738 7.079 A 18.446 18.446 0 0 1 1343.7 5.25 Q 1347.348 3.426 1352.58 3.149 A 36.39 36.39 0 0 1 1354.5 3.1 A 36.573 36.573 0 0 1 1364.22 4.453 A 42.521 42.521 0 0 1 1366.5 5.15 Q 1371.992 6.996 1378.133 10.909 A 78.946 78.946 0 0 1 1379.5 11.8 A 96.3 96.3 0 0 1 1385.767 16.38 Q 1388.9 18.856 1392.246 21.848 A 175.749 175.749 0 0 1 1394.5 23.9 L 1391.8 27 Q 1386.5 22.5 1380.9 18.85 A 59.82 59.82 0 0 0 1371.09 13.647 A 54.589 54.589 0 0 0 1369.45 13 Q 1363.6 10.8 1357.6 10.8 A 26.307 26.307 0 0 0 1354.042 11.026 Q 1352.224 11.275 1350.71 11.797 A 12.842 12.842 0 0 0 1348.95 12.55 A 13.947 13.947 0 0 0 1346.493 14.162 A 9.984 9.984 0 0 0 1344.1 17 Q 1342.6 19.7 1342.6 22.8 Q 1342.6 24.5 1343.05 26 A 18.059 18.059 0 0 0 1343.749 27.914 A 22.083 22.083 0 0 0 1344.3 29.1 L 1354.9 29.1 L 1358.3 35.6 L 1358.3 36.6 L 1346.6 36.6 Z M 289.6 54.3 L 289.8 36.6 L 248 36.6 L 244.6 30.1 L 244.6 29.1 L 306.5 29.1 L 309.9 35.6 L 309.9 36.6 L 298.2 36.6 L 298.4 92.1 L 297.4 92.1 L 289.4 86.9 L 289.5 71 Q 286.82 72.761 284.668 74.053 A 84.78 84.78 0 0 1 283.4 74.8 Q 280.8 76.3 278.25 77.05 A 18.024 18.024 0 0 1 275.187 77.655 A 23.923 23.923 0 0 1 272.5 77.8 A 25.397 25.397 0 0 1 267.929 77.408 A 18.858 18.858 0 0 1 263.4 76 A 21.173 21.173 0 0 1 258.724 73.085 A 18.769 18.769 0 0 1 256.85 71.3 A 22.059 22.059 0 0 1 253.932 67.321 A 19.242 19.242 0 0 1 252.85 65.1 A 19.6 19.6 0 0 1 251.892 62.143 A 14.246 14.246 0 0 1 251.5 58.9 Q 251.5 54.7 254.05 51.4 Q 256.6 48.1 260.8 46.25 A 22.139 22.139 0 0 1 269.214 44.409 A 25.576 25.576 0 0 1 269.9 44.4 Q 275.9 44.4 280.9 47.2 Q 285.9 50 289.6 54.3 Z M 1311.3 54.3 L 1311.5 36.6 L 1269.7 36.6 L 1266.3 30.1 L 1266.3 29.1 L 1328.2 29.1 L 1331.6 35.6 L 1331.6 36.6 L 1319.9 36.6 L 1320.1 92.1 L 1319.1 92.1 L 1311.1 86.9 L 1311.2 71 Q 1308.52 72.761 1306.368 74.053 A 84.78 84.78 0 0 1 1305.1 74.8 Q 1302.5 76.3 1299.95 77.05 A 18.024 18.024 0 0 1 1296.887 77.655 A 23.923 23.923 0 0 1 1294.2 77.8 A 25.397 25.397 0 0 1 1289.629 77.408 A 18.858 18.858 0 0 1 1285.1 76 A 21.173 21.173 0 0 1 1280.424 73.085 A 18.769 18.769 0 0 1 1278.55 71.3 A 22.059 22.059 0 0 1 1275.632 67.321 A 19.242 19.242 0 0 1 1274.55 65.1 A 19.6 19.6 0 0 1 1273.592 62.143 A 14.246 14.246 0 0 1 1273.2 58.9 Q 1273.2 54.7 1275.75 51.4 Q 1278.3 48.1 1282.5 46.25 A 22.139 22.139 0 0 1 1290.914 44.409 A 25.576 25.576 0 0 1 1291.6 44.4 Q 1297.6 44.4 1302.6 47.2 Q 1307.6 50 1311.3 54.3 Z M 1617.7 54.3 L 1617.9 36.6 L 1576.1 36.6 L 1572.7 30.1 L 1572.7 29.1 L 1634.6 29.1 L 1638 35.6 L 1638 36.6 L 1626.3 36.6 L 1626.5 92.1 L 1625.5 92.1 L 1617.5 86.9 L 1617.6 71 Q 1614.92 72.761 1612.768 74.053 A 84.78 84.78 0 0 1 1611.5 74.8 Q 1608.9 76.3 1606.35 77.05 A 18.024 18.024 0 0 1 1603.287 77.655 A 23.923 23.923 0 0 1 1600.6 77.8 A 25.397 25.397 0 0 1 1596.029 77.408 A 18.858 18.858 0 0 1 1591.5 76 A 21.173 21.173 0 0 1 1586.824 73.085 A 18.769 18.769 0 0 1 1584.95 71.3 A 22.059 22.059 0 0 1 1582.032 67.321 A 19.242 19.242 0 0 1 1580.95 65.1 A 19.6 19.6 0 0 1 1579.992 62.143 A 14.246 14.246 0 0 1 1579.6 58.9 Q 1579.6 54.7 1582.15 51.4 Q 1584.7 48.1 1588.9 46.25 A 22.139 22.139 0 0 1 1597.314 44.409 A 25.576 25.576 0 0 1 1598 44.4 Q 1604 44.4 1609 47.2 Q 1614 50 1617.7 54.3 Z M 607.9 35.6 L 607.9 36.6 L 596.2 36.6 L 596.4 92.1 L 595.4 92.1 L 587.4 86.9 L 587.6 61.8 L 570 61.8 A 88.594 88.594 0 0 1 569.963 64.472 Q 569.853 68.091 569.42 69.822 A 7.977 7.977 0 0 1 569.4 69.9 A 3.803 3.803 0 0 1 568.953 70.973 Q 568.289 72.027 566.955 72.176 A 4.115 4.115 0 0 1 566.5 72.2 Q 564.4 72.2 562 70.9 Q 559.6 69.6 557.55 67.5 Q 555.5 65.4 554.2 62.9 A 12.577 12.577 0 0 1 553.311 60.751 A 9.113 9.113 0 0 1 552.9 58.1 Q 552.9 55.3 555.15 54.65 Q 557.3 54.029 560.955 54.001 A 45.485 45.485 0 0 1 561.3 54 Q 562.958 54 566.566 54.042 A 1432.515 1432.515 0 0 1 567.2 54.05 A 481.174 481.174 0 0 1 571.027 54.113 Q 573.641 54.166 576.65 54.25 Q 582 54.4 587.6 54.5 L 587.8 36.6 L 548.7 36.6 L 545.3 30.1 L 545.3 29.1 L 604.5 29.1 L 607.9 35.6 Z M 691.6 35.6 L 691.6 36.6 L 679.9 36.6 L 680.1 92.1 L 679.1 92.1 L 671.1 86.9 L 671.3 61.8 L 653.7 61.8 A 88.594 88.594 0 0 1 653.663 64.472 Q 653.553 68.091 653.12 69.822 A 7.977 7.977 0 0 1 653.1 69.9 A 3.803 3.803 0 0 1 652.653 70.973 Q 651.989 72.027 650.655 72.176 A 4.115 4.115 0 0 1 650.2 72.2 Q 648.1 72.2 645.7 70.9 Q 643.3 69.6 641.25 67.5 Q 639.2 65.4 637.9 62.9 A 12.577 12.577 0 0 1 637.011 60.751 A 9.113 9.113 0 0 1 636.6 58.1 Q 636.6 55.3 638.85 54.65 Q 641 54.029 644.655 54.001 A 45.485 45.485 0 0 1 645 54 Q 646.658 54 650.266 54.042 A 1432.515 1432.515 0 0 1 650.9 54.05 A 481.174 481.174 0 0 1 654.727 54.113 Q 657.341 54.166 660.35 54.25 Q 665.7 54.4 671.3 54.5 L 671.5 36.6 L 632.4 36.6 L 629 30.1 L 629 29.1 L 688.2 29.1 L 691.6 35.6 Z M 1015.3 35.6 L 1015.3 36.6 L 1003.6 36.6 L 1003.8 92.1 L 1002.8 92.1 L 994.8 86.9 L 995 61.8 L 977.4 61.8 A 88.594 88.594 0 0 1 977.363 64.472 Q 977.253 68.091 976.82 69.822 A 7.977 7.977 0 0 1 976.8 69.9 A 3.803 3.803 0 0 1 976.353 70.973 Q 975.689 72.027 974.355 72.176 A 4.115 4.115 0 0 1 973.9 72.2 Q 971.8 72.2 969.4 70.9 Q 967 69.6 964.95 67.5 Q 962.9 65.4 961.6 62.9 A 12.577 12.577 0 0 1 960.711 60.751 A 9.113 9.113 0 0 1 960.3 58.1 Q 960.3 55.3 962.55 54.65 Q 964.7 54.029 968.355 54.001 A 45.485 45.485 0 0 1 968.7 54 Q 970.358 54 973.966 54.042 A 1432.515 1432.515 0 0 1 974.6 54.05 A 481.174 481.174 0 0 1 978.427 54.113 Q 981.041 54.166 984.05 54.25 Q 989.4 54.4 995 54.5 L 995.2 36.6 L 956.1 36.6 L 952.7 30.1 L 952.7 29.1 L 1011.9 29.1 L 1015.3 35.6 Z M 1154 35.6 L 1154 36.6 L 1142.3 36.6 L 1142.5 92.1 L 1141.5 92.1 L 1133.5 86.9 L 1133.7 61.8 L 1116.1 61.8 A 88.594 88.594 0 0 1 1116.063 64.472 Q 1115.953 68.091 1115.52 69.822 A 7.977 7.977 0 0 1 1115.5 69.9 A 3.803 3.803 0 0 1 1115.053 70.973 Q 1114.389 72.027 1113.055 72.176 A 4.115 4.115 0 0 1 1112.6 72.2 Q 1110.5 72.2 1108.1 70.9 Q 1105.7 69.6 1103.65 67.5 Q 1101.6 65.4 1100.3 62.9 A 12.577 12.577 0 0 1 1099.411 60.751 A 9.113 9.113 0 0 1 1099 58.1 Q 1099 55.3 1101.25 54.65 Q 1103.4 54.029 1107.055 54.001 A 45.485 45.485 0 0 1 1107.4 54 Q 1109.058 54 1112.666 54.042 A 1432.515 1432.515 0 0 1 1113.3 54.05 A 481.174 481.174 0 0 1 1117.127 54.113 Q 1119.741 54.166 1122.75 54.25 Q 1128.1 54.4 1133.7 54.5 L 1133.9 36.6 L 1094.8 36.6 L 1091.4 30.1 L 1091.4 29.1 L 1150.6 29.1 L 1154 35.6 Z M 1779.9 35.6 L 1779.9 36.6 L 1768.2 36.6 L 1768.4 92.1 L 1767.4 92.1 L 1759.4 86.9 L 1759.6 61.8 L 1742 61.8 A 88.594 88.594 0 0 1 1741.963 64.472 Q 1741.853 68.091 1741.42 69.822 A 7.977 7.977 0 0 1 1741.4 69.9 A 3.803 3.803 0 0 1 1740.953 70.973 Q 1740.289 72.027 1738.955 72.176 A 4.115 4.115 0 0 1 1738.5 72.2 Q 1736.4 72.2 1734 70.9 Q 1731.6 69.6 1729.55 67.5 Q 1727.5 65.4 1726.2 62.9 A 12.577 12.577 0 0 1 1725.311 60.751 A 9.113 9.113 0 0 1 1724.9 58.1 Q 1724.9 55.3 1727.15 54.65 Q 1729.3 54.029 1732.955 54.001 A 45.485 45.485 0 0 1 1733.3 54 Q 1734.958 54 1738.566 54.042 A 1432.515 1432.515 0 0 1 1739.2 54.05 A 481.174 481.174 0 0 1 1743.027 54.113 Q 1745.641 54.166 1748.65 54.25 Q 1754 54.4 1759.6 54.5 L 1759.8 36.6 L 1720.7 36.6 L 1717.3 30.1 L 1717.3 29.1 L 1776.5 29.1 L 1779.9 35.6 Z M 1499.6 35.6 L 1499.6 36.6 L 1487.9 36.6 L 1488.1 92.6 L 1487.1 92.6 L 1479.1 87.4 L 1479.5 36.6 L 1470.7 36.6 L 1467.3 30.1 L 1467.3 29.1 L 1480.6 29.1 A 290.795 290.795 0 0 0 1478.531 25.594 Q 1475.969 21.324 1473.947 18.342 A 85.645 85.645 0 0 0 1473.3 17.4 A 54.428 54.428 0 0 0 1471.411 14.962 Q 1469.565 12.723 1468.009 11.448 A 13.005 13.005 0 0 0 1467.5 11.05 A 9.722 9.722 0 0 0 1464.946 9.67 A 8.212 8.212 0 0 0 1462.2 9.2 Q 1460.975 9.2 1459.017 9.376 A 83.458 83.458 0 0 0 1457.75 9.5 Q 1454.9 9.8 1452.6 10.3 L 1448 1.8 L 1448.1 1.1 A 88.823 88.823 0 0 1 1450.87 0.645 Q 1453.05 0.325 1454.8 0.2 A 194.586 194.586 0 0 1 1455.934 0.122 Q 1457.797 0 1458.5 0 A 13.577 13.577 0 0 1 1466.042 2.319 A 18.255 18.255 0 0 1 1468 3.8 A 37.964 37.964 0 0 1 1471.592 7.383 Q 1473.239 9.245 1474.901 11.521 A 76.071 76.071 0 0 1 1476.9 14.4 A 305.482 305.482 0 0 1 1480.991 20.817 Q 1483.397 24.691 1486 29.1 L 1496.2 29.1 L 1499.6 35.6 Z M 194 60.1 L 199.4 60.1 L 199.5 36.6 L 186.8 36.6 L 183.4 30.1 L 183.4 29.1 L 246.8 29.1 L 250.2 35.6 L 250.2 36.6 L 238.5 36.6 L 238.7 92.1 L 237.7 92.1 L 229.7 86.9 L 229.8 67.6 L 207.9 67.6 L 207.9 74.8 A 3.94 3.94 0 0 1 207.794 75.759 Q 207.406 77.3 205.6 77.3 A 3.906 3.906 0 0 1 204.552 77.141 Q 203.565 76.864 202.314 76.107 A 17.3 17.3 0 0 1 201.75 75.75 A 25.808 25.808 0 0 1 199.106 73.737 A 33.702 33.702 0 0 1 197.05 71.8 A 31.217 31.217 0 0 1 194.231 68.507 A 26.558 26.558 0 0 1 193.1 66.85 A 14.454 14.454 0 0 1 192.274 65.356 Q 191.911 64.59 191.718 63.892 A 5.615 5.615 0 0 1 191.5 62.4 Q 191.5 61.5 192.1 60.8 A 1.848 1.848 0 0 1 192.92 60.259 Q 193.222 60.155 193.593 60.119 A 4.231 4.231 0 0 1 194 60.1 Z M 144.2 36.6 L 128.6 36.6 L 125.2 30.1 L 125.2 29.1 L 185.6 29.1 L 189 35.6 L 189 36.6 L 177.3 36.6 L 177.5 92.1 L 176.5 92.1 L 168.5 86.9 L 168.6 73.9 A 22.532 22.532 0 0 1 165.319 75.729 A 17.987 17.987 0 0 1 162.6 76.7 Q 159.6 77.5 156.9 77.5 Q 151 77.5 145.75 74.35 Q 140.5 71.2 136.85 65.9 Q 133.2 60.6 132 54 A 78.602 78.602 0 0 0 136.059 52.904 Q 139.942 51.734 142.403 50.444 A 17.325 17.325 0 0 0 143.45 49.85 Q 147.1 47.6 147.1 44.2 A 6.839 6.839 0 0 0 147.023 43.224 Q 146.877 42.213 146.45 40.9 A 13.131 13.131 0 0 0 145.699 39.093 Q 145.252 38.198 144.638 37.251 A 24.283 24.283 0 0 0 144.2 36.6 Z M 422.8 36.6 L 407.2 36.6 L 403.8 30.1 L 403.8 29.1 L 464.2 29.1 L 467.6 35.6 L 467.6 36.6 L 455.9 36.6 L 456.1 92.1 L 455.1 92.1 L 447.1 86.9 L 447.2 73.9 A 22.532 22.532 0 0 1 443.919 75.729 A 17.987 17.987 0 0 1 441.2 76.7 Q 438.2 77.5 435.5 77.5 Q 429.6 77.5 424.35 74.35 Q 419.1 71.2 415.45 65.9 Q 411.8 60.6 410.6 54 A 78.602 78.602 0 0 0 414.659 52.904 Q 418.542 51.734 421.003 50.444 A 17.325 17.325 0 0 0 422.05 49.85 Q 425.7 47.6 425.7 44.2 A 6.839 6.839 0 0 0 425.623 43.224 Q 425.477 42.213 425.05 40.9 A 13.131 13.131 0 0 0 424.299 39.093 Q 423.852 38.198 423.238 37.251 A 24.283 24.283 0 0 0 422.8 36.6 Z M 913.5 36.6 L 897.9 36.6 L 894.5 30.1 L 894.5 29.1 L 954.9 29.1 L 958.3 35.6 L 958.3 36.6 L 946.6 36.6 L 946.8 92.1 L 945.8 92.1 L 937.8 86.9 L 937.9 73.9 A 22.532 22.532 0 0 1 934.619 75.729 A 17.987 17.987 0 0 1 931.9 76.7 Q 928.9 77.5 926.2 77.5 Q 920.3 77.5 915.05 74.35 Q 909.8 71.2 906.15 65.9 Q 902.5 60.6 901.3 54 A 78.602 78.602 0 0 0 905.359 52.904 Q 909.242 51.734 911.703 50.444 A 17.325 17.325 0 0 0 912.75 49.85 Q 916.4 47.6 916.4 44.2 A 6.839 6.839 0 0 0 916.323 43.224 Q 916.177 42.213 915.75 40.9 A 13.131 13.131 0 0 0 914.999 39.093 Q 914.552 38.198 913.938 37.251 A 24.283 24.283 0 0 0 913.5 36.6 Z M 1651.4 36.6 L 1635.8 36.6 L 1632.4 30.1 L 1632.4 29.1 L 1692.8 29.1 L 1696.2 35.6 L 1696.2 36.6 L 1684.5 36.6 L 1684.7 92.1 L 1683.7 92.1 L 1675.7 86.9 L 1675.8 73.9 A 22.532 22.532 0 0 1 1672.519 75.729 A 17.987 17.987 0 0 1 1669.8 76.7 Q 1666.8 77.5 1664.1 77.5 Q 1658.2 77.5 1652.95 74.35 Q 1647.7 71.2 1644.05 65.9 Q 1640.4 60.6 1639.2 54 A 78.602 78.602 0 0 0 1643.259 52.904 Q 1647.142 51.734 1649.603 50.444 A 17.325 17.325 0 0 0 1650.65 49.85 Q 1654.3 47.6 1654.3 44.2 A 6.839 6.839 0 0 0 1654.223 43.224 Q 1654.077 42.213 1653.65 40.9 A 13.131 13.131 0 0 0 1652.899 39.093 Q 1652.452 38.198 1651.838 37.251 A 24.283 24.283 0 0 0 1651.4 36.6 Z M 1045.9 36.6 L 1039.1 36.6 L 1035.7 30.1 L 1035.7 29.1 L 1093.6 29.1 L 1097 35.6 L 1097 36.6 L 1085.3 36.6 L 1085.5 92.1 L 1084.5 92.1 L 1076.5 86.9 L 1076.6 71.1 A 24.763 24.763 0 0 1 1072.343 73.172 Q 1069.413 74.247 1066.579 74.298 A 15.666 15.666 0 0 1 1066.3 74.3 Q 1062.4 74.3 1058.8 72.5 Q 1055.2 70.7 1052.3 67.9 A 27.003 27.003 0 0 1 1049.279 64.469 A 22.219 22.219 0 0 1 1047.7 62 Q 1046 58.9 1045.9 56.4 Q 1045.8 55 1045.8 53.8 L 1045.8 51.5 Q 1045.8 48.3 1045.85 44.4 Q 1045.9 40.5 1045.9 36.6 Z M 634.6 35.6 L 634.6 36.6 L 622.9 36.6 L 623.1 92.6 L 622.1 92.6 L 614.1 87.4 L 614.5 36.6 L 605.7 36.6 L 602.3 30.1 L 602.3 29.1 L 631.2 29.1 L 634.6 35.6 Z M 1245.9 35.6 L 1245.9 36.6 L 1234.2 36.6 L 1234.4 92.6 L 1233.4 92.6 L 1225.4 87.4 L 1225.8 36.6 L 1217 36.6 L 1213.6 30.1 L 1213.6 29.1 L 1242.5 29.1 L 1245.9 35.6 Z M 1722.9 35.6 L 1722.9 36.6 L 1711.2 36.6 L 1711.4 92.6 L 1710.4 92.6 L 1702.4 87.4 L 1702.8 36.6 L 1694 36.6 L 1690.6 30.1 L 1690.6 29.1 L 1719.5 29.1 L 1722.9 35.6 Z M 1794.2 33.1 L 1794.2 92.6 L 1793.2 92.6 L 1785.6 87.6 L 1785.6 28.1 L 1786.6 28.1 L 1794.2 33.1 Z M 168.7 64.1 L 168.9 36.6 L 149.7 36.6 A 41.808 41.808 0 0 1 151.924 40.371 Q 154.042 44.479 154.272 47.724 A 10.995 10.995 0 0 1 154.3 48.5 A 8.53 8.53 0 0 1 152.099 54.224 A 11.931 11.931 0 0 1 151.15 55.2 Q 148.298 57.826 142.042 59.714 A 54.314 54.314 0 0 1 140.7 60.1 Q 140.8 63.1 142.45 65.65 Q 144.1 68.2 146.85 69.7 A 12.4 12.4 0 0 0 152.147 71.176 A 14.879 14.879 0 0 0 153 71.2 A 15.679 15.679 0 0 0 156.754 70.72 Q 158.364 70.323 160.072 69.598 A 26.333 26.333 0 0 0 160.3 69.5 Q 163.495 68.107 167.094 65.372 A 53.771 53.771 0 0 0 168.7 64.1 Z M 447.3 64.1 L 447.5 36.6 L 428.3 36.6 A 41.808 41.808 0 0 1 430.524 40.371 Q 432.642 44.479 432.872 47.724 A 10.995 10.995 0 0 1 432.9 48.5 A 8.53 8.53 0 0 1 430.699 54.224 A 11.931 11.931 0 0 1 429.75 55.2 Q 426.898 57.826 420.642 59.714 A 54.314 54.314 0 0 1 419.3 60.1 Q 419.4 63.1 421.05 65.65 Q 422.7 68.2 425.45 69.7 A 12.4 12.4 0 0 0 430.747 71.176 A 14.879 14.879 0 0 0 431.6 71.2 A 15.679 15.679 0 0 0 435.354 70.72 Q 436.964 70.323 438.672 69.598 A 26.333 26.333 0 0 0 438.9 69.5 Q 442.095 68.107 445.694 65.372 A 53.771 53.771 0 0 0 447.3 64.1 Z M 938 64.1 L 938.2 36.6 L 919 36.6 A 41.808 41.808 0 0 1 921.224 40.371 Q 923.342 44.479 923.572 47.724 A 10.995 10.995 0 0 1 923.6 48.5 A 8.53 8.53 0 0 1 921.399 54.224 A 11.931 11.931 0 0 1 920.45 55.2 Q 917.598 57.826 911.342 59.714 A 54.314 54.314 0 0 1 910 60.1 Q 910.1 63.1 911.75 65.65 Q 913.4 68.2 916.15 69.7 A 12.4 12.4 0 0 0 921.447 71.176 A 14.879 14.879 0 0 0 922.3 71.2 A 15.679 15.679 0 0 0 926.054 70.72 Q 927.664 70.323 929.372 69.598 A 26.333 26.333 0 0 0 929.6 69.5 Q 932.795 68.107 936.394 65.372 A 53.771 53.771 0 0 0 938 64.1 Z M 1675.9 64.1 L 1676.1 36.6 L 1656.9 36.6 A 41.808 41.808 0 0 1 1659.124 40.371 Q 1661.242 44.479 1661.472 47.724 A 10.995 10.995 0 0 1 1661.5 48.5 A 8.53 8.53 0 0 1 1659.299 54.224 A 11.931 11.931 0 0 1 1658.35 55.2 Q 1655.498 57.826 1649.242 59.714 A 54.314 54.314 0 0 1 1647.9 60.1 Q 1648 63.1 1649.65 65.65 Q 1651.3 68.2 1654.05 69.7 A 12.4 12.4 0 0 0 1659.347 71.176 A 14.879 14.879 0 0 0 1660.2 71.2 A 15.679 15.679 0 0 0 1663.954 70.72 Q 1665.564 70.323 1667.272 69.598 A 26.333 26.333 0 0 0 1667.5 69.5 Q 1670.695 68.107 1674.294 65.372 A 53.771 53.771 0 0 0 1675.9 64.1 Z M 686.4 108.1 L 691.2 114.3 A 17.352 17.352 0 0 1 690.154 114.898 Q 688.987 115.518 687.26 116.274 A 81.448 81.448 0 0 1 686.15 116.75 A 17.804 17.804 0 0 1 682.196 117.871 Q 680.377 118.177 678.314 118.198 A 30.066 30.066 0 0 1 678 118.2 A 23.484 23.484 0 0 1 673.985 117.876 Q 671.74 117.486 669.915 116.627 A 12.845 12.845 0 0 1 668.5 115.85 A 17.85 17.85 0 0 1 665.361 113.351 A 14.016 14.016 0 0 1 663 110.2 A 18.506 18.506 0 0 1 661.975 108.014 Q 661.539 106.885 661.348 105.851 A 8.545 8.545 0 0 1 661.2 104.3 Q 661.2 101.1 663.35 98.7 A 14.091 14.091 0 0 1 666.397 96.167 A 18.747 18.747 0 0 1 669.05 94.8 Q 672.6 93.3 676.7 93 L 681.3 99 L 681.3 99.6 A 41.932 41.932 0 0 0 678.265 99.938 Q 675.162 100.406 673.1 101.3 A 16.966 16.966 0 0 0 671.396 102.147 Q 670.579 102.616 669.956 103.124 A 6.65 6.65 0 0 0 668.85 104.25 Q 667.6 105.9 667.6 107.4 A 3.313 3.313 0 0 0 667.897 108.734 Q 668.233 109.503 668.95 110.3 A 3.514 3.514 0 0 0 670.156 111.139 Q 671.312 111.652 673.173 111.767 A 18.361 18.361 0 0 0 674.3 111.8 A 18.167 18.167 0 0 0 677.083 111.574 A 24.639 24.639 0 0 0 679.75 111 A 21.805 21.805 0 0 0 682.271 110.135 Q 684.203 109.347 686.4 108.1 Z M 203.2 10.3 L 198.6 1.8 L 198.7 1.1 A 88.823 88.823 0 0 1 201.47 0.645 Q 203.65 0.325 205.4 0.2 A 194.586 194.586 0 0 1 206.534 0.122 Q 208.397 0 209.1 0 A 13.577 13.577 0 0 1 216.642 2.319 A 18.255 18.255 0 0 1 218.6 3.8 A 37.452 37.452 0 0 1 222.192 7.391 Q 223.839 9.261 225.501 11.551 A 75.834 75.834 0 0 1 227.5 14.45 Q 232 21.3 237.3 30.3 L 231.9 30.3 A 279.822 279.822 0 0 0 229.051 25.479 Q 226.502 21.267 224.493 18.365 A 75.295 75.295 0 0 0 223.85 17.45 Q 220.93 13.362 218.616 11.454 A 12.49 12.49 0 0 0 218.1 11.05 A 9.722 9.722 0 0 0 215.546 9.67 A 8.212 8.212 0 0 0 212.8 9.2 Q 211.575 9.2 209.617 9.376 A 83.458 83.458 0 0 0 208.35 9.5 Q 205.5 9.8 203.2 10.3 Z M 477.9 10.3 L 473.3 1.8 L 473.4 1.1 A 88.823 88.823 0 0 1 476.17 0.645 Q 478.35 0.325 480.1 0.2 A 194.586 194.586 0 0 1 481.234 0.122 Q 483.097 0 483.8 0 A 13.577 13.577 0 0 1 491.342 2.319 A 18.255 18.255 0 0 1 493.3 3.8 A 37.452 37.452 0 0 1 496.892 7.391 Q 498.539 9.261 500.201 11.551 A 75.834 75.834 0 0 1 502.2 14.45 Q 506.7 21.3 512 30.3 L 506.6 30.3 A 279.822 279.822 0 0 0 503.751 25.479 Q 501.202 21.267 499.193 18.365 A 75.295 75.295 0 0 0 498.55 17.45 Q 495.63 13.362 493.316 11.454 A 12.49 12.49 0 0 0 492.8 11.05 A 9.722 9.722 0 0 0 490.246 9.67 A 8.212 8.212 0 0 0 487.5 9.2 Q 486.275 9.2 484.317 9.376 A 83.458 83.458 0 0 0 483.05 9.5 Q 480.2 9.8 477.9 10.3 Z M 911.3 10.3 L 906.7 1.8 L 906.8 1.1 A 88.823 88.823 0 0 1 909.57 0.645 Q 911.75 0.325 913.5 0.2 A 194.586 194.586 0 0 1 914.634 0.122 Q 916.497 0 917.2 0 A 13.577 13.577 0 0 1 924.742 2.319 A 18.255 18.255 0 0 1 926.7 3.8 A 37.452 37.452 0 0 1 930.292 7.391 Q 931.939 9.261 933.601 11.551 A 75.834 75.834 0 0 1 935.6 14.45 Q 940.1 21.3 945.4 30.3 L 940 30.3 A 279.822 279.822 0 0 0 937.151 25.479 Q 934.602 21.267 932.593 18.365 A 75.295 75.295 0 0 0 931.95 17.45 Q 929.03 13.362 926.716 11.454 A 12.49 12.49 0 0 0 926.2 11.05 A 9.722 9.722 0 0 0 923.646 9.67 A 8.212 8.212 0 0 0 920.9 9.2 Q 919.675 9.2 917.717 9.376 A 83.458 83.458 0 0 0 916.45 9.5 Q 913.6 9.8 911.3 10.3 Z M 1531.3 10.3 L 1526.7 1.8 L 1526.8 1.1 A 88.823 88.823 0 0 1 1529.57 0.645 Q 1531.75 0.325 1533.5 0.2 A 194.586 194.586 0 0 1 1534.634 0.122 Q 1536.497 0 1537.2 0 A 13.577 13.577 0 0 1 1544.742 2.319 A 18.255 18.255 0 0 1 1546.7 3.8 A 37.452 37.452 0 0 1 1550.292 7.391 Q 1551.939 9.261 1553.601 11.551 A 75.834 75.834 0 0 1 1555.6 14.45 Q 1560.1 21.3 1565.4 30.3 L 1560 30.3 A 279.822 279.822 0 0 0 1557.151 25.479 Q 1554.602 21.267 1552.593 18.365 A 75.295 75.295 0 0 0 1551.95 17.45 Q 1549.03 13.362 1546.716 11.454 A 12.49 12.49 0 0 0 1546.2 11.05 A 9.722 9.722 0 0 0 1543.646 9.67 A 8.212 8.212 0 0 0 1540.9 9.2 Q 1539.675 9.2 1537.717 9.376 A 83.458 83.458 0 0 0 1536.45 9.5 Q 1533.6 9.8 1531.3 10.3 Z M 1076.7 60.7 L 1076.9 36.6 L 1054.4 36.6 L 1054.6 58.6 Q 1054.6 61.486 1055.395 63.433 A 6.495 6.495 0 0 0 1056.8 65.6 Q 1058.989 67.789 1061.475 67.8 A 5.683 5.683 0 0 0 1061.5 67.8 A 11.423 11.423 0 0 0 1064.256 67.44 Q 1065.488 67.133 1066.823 66.566 A 23.443 23.443 0 0 0 1068.25 65.9 A 53.126 53.126 0 0 0 1071.454 64.125 Q 1073.142 63.117 1074.989 61.876 A 101.739 101.739 0 0 0 1076.7 60.7 Z M 110.1 103.1 L 106.4 95.2 L 106.6 94.6 A 37.949 37.949 0 0 1 109.468 94.169 Q 110.825 94.021 112.052 94.003 A 23.056 23.056 0 0 1 112.4 94 Q 115.7 94 118.8 95.25 A 23.771 23.771 0 0 1 122.481 97.14 A 30.358 30.358 0 0 1 125 98.9 Q 126.197 99.821 128.92 102.183 A 315.282 315.282 0 0 1 129.4 102.6 Q 132.294 105.121 135.886 108.339 A 879.261 879.261 0 0 1 136.4 108.8 Q 140.3 112.3 144 115.9 L 140.6 119.7 L 139.9 119.7 Q 135.339 114.569 132.132 111.244 A 147.475 147.475 0 0 0 131.8 110.9 A 85.089 85.089 0 0 0 129.638 108.746 Q 127.675 106.864 126.1 105.65 A 18.838 18.838 0 0 0 124.065 104.272 Q 122.983 103.644 121.933 103.263 A 10.903 10.903 0 0 0 121.45 103.1 A 15.471 15.471 0 0 0 118.303 102.483 A 19.157 19.157 0 0 0 116.5 102.4 Q 114.1 102.4 112.5 102.7 Q 111.35 102.916 110.614 103.028 A 19.499 19.499 0 0 1 110.1 103.1 Z M 879.4 103.1 L 875.7 95.2 L 875.9 94.6 A 37.949 37.949 0 0 1 878.768 94.169 Q 880.125 94.021 881.352 94.003 A 23.056 23.056 0 0 1 881.7 94 Q 885 94 888.1 95.25 A 23.771 23.771 0 0 1 891.781 97.14 A 30.358 30.358 0 0 1 894.3 98.9 Q 895.497 99.821 898.22 102.183 A 315.282 315.282 0 0 1 898.7 102.6 Q 901.594 105.121 905.186 108.339 A 879.261 879.261 0 0 1 905.7 108.8 Q 909.6 112.3 913.3 115.9 L 909.9 119.7 L 909.2 119.7 Q 904.639 114.569 901.432 111.244 A 147.475 147.475 0 0 0 901.1 110.9 A 85.089 85.089 0 0 0 898.938 108.746 Q 896.975 106.864 895.4 105.65 A 18.838 18.838 0 0 0 893.365 104.272 Q 892.283 103.644 891.233 103.263 A 10.903 10.903 0 0 0 890.75 103.1 A 15.471 15.471 0 0 0 887.603 102.483 A 19.157 19.157 0 0 0 885.8 102.4 Q 883.4 102.4 881.8 102.7 Q 880.65 102.916 879.914 103.028 A 19.499 19.499 0 0 1 879.4 103.1 Z M 1133.3 103.1 L 1129.6 95.2 L 1129.8 94.6 A 37.949 37.949 0 0 1 1132.668 94.169 Q 1134.025 94.021 1135.252 94.003 A 23.056 23.056 0 0 1 1135.6 94 Q 1138.9 94 1142 95.25 A 23.771 23.771 0 0 1 1145.681 97.14 A 30.358 30.358 0 0 1 1148.2 98.9 Q 1149.397 99.821 1152.12 102.183 A 315.282 315.282 0 0 1 1152.6 102.6 Q 1155.494 105.121 1159.086 108.339 A 879.261 879.261 0 0 1 1159.6 108.8 Q 1163.5 112.3 1167.2 115.9 L 1163.8 119.7 L 1163.1 119.7 Q 1158.539 114.569 1155.332 111.244 A 147.475 147.475 0 0 0 1155 110.9 A 85.089 85.089 0 0 0 1152.838 108.746 Q 1150.875 106.864 1149.3 105.65 A 18.838 18.838 0 0 0 1147.265 104.272 Q 1146.183 103.644 1145.133 103.263 A 10.903 10.903 0 0 0 1144.65 103.1 A 15.471 15.471 0 0 0 1141.503 102.483 A 19.157 19.157 0 0 0 1139.7 102.4 Q 1137.3 102.4 1135.7 102.7 Q 1134.55 102.916 1133.814 103.028 A 19.499 19.499 0 0 1 1133.3 103.1 Z M 229.9 60.1 L 230.1 36.6 L 207.7 36.6 L 207.8 60.1 L 229.9 60.1 Z M 53.2 57.3 L 53.4 36.6 L 29.8 36.6 Q 30 38.5 30.05 40.8 A 427.727 427.727 0 0 1 30.072 41.847 Q 30.093 42.976 30.098 43.638 A 47.501 47.501 0 0 1 30.1 44 Q 30.1 48.4 29.75 52 A 56.68 56.68 0 0 1 29.507 54.113 Q 29.213 56.288 28.8 57.8 A 10.734 10.734 0 0 0 29.653 58.242 Q 30.703 58.734 32.25 59.25 A 37.45 37.45 0 0 0 35.794 60.234 A 43.012 43.012 0 0 0 37.05 60.5 A 27.045 27.045 0 0 0 40.14 60.93 A 22.54 22.54 0 0 0 41.9 61 Q 45.4 61 48.5 59.85 Q 51.6 58.7 53.2 57.3 Z M 822.5 57.3 L 822.7 36.6 L 799.1 36.6 Q 799.3 38.5 799.35 40.8 A 427.727 427.727 0 0 1 799.372 41.847 Q 799.393 42.976 799.398 43.638 A 47.501 47.501 0 0 1 799.4 44 Q 799.4 48.4 799.05 52 A 56.68 56.68 0 0 1 798.807 54.113 Q 798.512 56.288 798.1 57.8 A 10.734 10.734 0 0 0 798.953 58.242 Q 800.003 58.734 801.55 59.25 A 37.45 37.45 0 0 0 805.094 60.234 A 43.012 43.012 0 0 0 806.35 60.5 A 27.045 27.045 0 0 0 809.44 60.93 A 22.54 22.54 0 0 0 811.2 61 Q 814.7 61 817.8 59.85 Q 820.9 58.7 822.5 57.3 Z M 289.6 60.6 L 289.6 59.8 A 26.565 26.565 0 0 0 285.254 56.418 A 34.323 34.323 0 0 0 281.65 54.45 A 23.324 23.324 0 0 0 275.544 52.491 A 20.619 20.619 0 0 0 272.1 52.2 A 17.696 17.696 0 0 0 267.314 52.821 A 14.27 14.27 0 0 0 262.7 55.05 Q 258.8 57.9 258.8 63.2 A 9.114 9.114 0 0 0 259.131 65.725 A 6.658 6.658 0 0 0 261.6 69.3 A 10.501 10.501 0 0 0 267.381 71.375 A 13.188 13.188 0 0 0 268.2 71.4 A 14.127 14.127 0 0 0 271.372 71.011 Q 273.871 70.434 276.8 69 A 43.691 43.691 0 0 0 280.064 67.203 Q 284.107 64.772 289.6 60.6 Z M 1311.3 60.6 L 1311.3 59.8 A 26.565 26.565 0 0 0 1306.954 56.418 A 34.323 34.323 0 0 0 1303.35 54.45 A 23.324 23.324 0 0 0 1297.244 52.491 A 20.619 20.619 0 0 0 1293.8 52.2 A 17.696 17.696 0 0 0 1289.014 52.821 A 14.27 14.27 0 0 0 1284.4 55.05 Q 1280.5 57.9 1280.5 63.2 A 9.114 9.114 0 0 0 1280.831 65.725 A 6.658 6.658 0 0 0 1283.3 69.3 A 10.501 10.501 0 0 0 1289.081 71.375 A 13.188 13.188 0 0 0 1289.9 71.4 A 14.127 14.127 0 0 0 1293.072 71.011 Q 1295.571 70.434 1298.5 69 A 43.691 43.691 0 0 0 1301.764 67.203 Q 1305.807 64.772 1311.3 60.6 Z M 1617.7 60.6 L 1617.7 59.8 A 26.565 26.565 0 0 0 1613.354 56.418 A 34.323 34.323 0 0 0 1609.75 54.45 A 23.324 23.324 0 0 0 1603.644 52.491 A 20.619 20.619 0 0 0 1600.2 52.2 A 17.696 17.696 0 0 0 1595.414 52.821 A 14.27 14.27 0 0 0 1590.8 55.05 Q 1586.9 57.9 1586.9 63.2 A 9.114 9.114 0 0 0 1587.231 65.725 A 6.658 6.658 0 0 0 1589.7 69.3 A 10.501 10.501 0 0 0 1595.481 71.375 A 13.188 13.188 0 0 0 1596.3 71.4 A 14.127 14.127 0 0 0 1599.472 71.011 Q 1601.971 70.434 1604.9 69 A 43.691 43.691 0 0 0 1608.164 67.203 Q 1612.207 64.772 1617.7 60.6 Z M 1782.1 77.4 L 1789.6 69.8 L 1797.3 77.4 L 1789.6 84.7 L 1782.1 77.4 Z M 1782.1 50.2 L 1789.6 42.6 L 1797.3 50.2 L 1789.6 57.5 L 1782.1 50.2 Z M 726.1 15.3 L 733 8.3 L 740 15.3 L 733 22.1 L 726.1 15.3 Z" vector-effect="non-scaling-stroke"/></g></svg>