<?xml version="1.0" encoding="UTF-8" standalone="no"?>
<!-- Created with Inkscape (http://www.inkscape.org/) -->

<svg
   width="210mm"
   height="297mm"
   viewBox="0 0 210 297"
   version="1.1"
   id="svg5"
   inkscape:version="1.1.1 (c3084ef, 2021-09-22)"
   sodipodi:docname="package_management.svg"
   xmlns:inkscape="http://www.inkscape.org/namespaces/inkscape"
   xmlns:sodipodi="http://sodipodi.sourceforge.net/DTD/sodipodi-0.dtd"
   xmlns:xlink="http://www.w3.org/1999/xlink"
   xmlns="http://www.w3.org/2000/svg"
   xmlns:svg="http://www.w3.org/2000/svg"
   xmlns:i="http://ns.adobe.com/AdobeIllustrator/10.0/"
   xmlns:a="http://ns.adobe.com/AdobeSVGViewerExtensions/3.0/"
   xmlns:serif="http://www.serif.com/">
  <sodipodi:namedview
     id="namedview7"
     pagecolor="#ffffff"
     bordercolor="#666666"
     borderopacity="1.0"
     inkscape:pageshadow="2"
     inkscape:pageopacity="0.0"
     inkscape:pagecheckerboard="0"
     inkscape:document-units="mm"
     showgrid="false"
     inkscape:zoom="1.105369"
     inkscape:cx="491.23867"
     inkscape:cy="222.55012"
     inkscape:window-width="1405"
     inkscape:window-height="836"
     inkscape:window-x="0"
     inkscape:window-y="1118"
     inkscape:window-maximized="0"
     inkscape:current-layer="layer1" />
  <defs
     id="defs2">
    <linearGradient
       id="linearGradient73648"
       inkscape:swatch="solid">
      <stop
         style="stop-color:#ffaaaa;stop-opacity:1;"
         offset="0"
         id="stop73646" />
    </linearGradient>
    <marker
       style="overflow:visible;"
       id="Arrow1Mend"
       refX="0.0"
       refY="0.0"
       orient="auto"
       inkscape:stockid="Arrow1Mend"
       inkscape:isstock="true">
      <path
         transform="scale(0.4) rotate(180) translate(10,0)"
         style="fill-rule:evenodd;fill:context-stroke;stroke:context-stroke;stroke-width:1.0pt;"
         d="M 0.0,0.0 L 5.0,-5.0 L -12.5,0.0 L 5.0,5.0 L 0.0,0.0 z "
         id="path24825" />
    </marker>
    <marker
       style="overflow:visible;"
       id="Arrow2Lend"
       refX="0.0"
       refY="0.0"
       orient="auto"
       inkscape:stockid="Arrow2Lend"
       inkscape:isstock="true">
      <path
         transform="scale(1.1) rotate(180) translate(1,0)"
         d="M 8.7185878,4.0337352 L -2.2072895,0.016013256 L 8.7185884,-4.0017078 C 6.9730900,-1.6296469 6.9831476,1.6157441 8.7185878,4.0337352 z "
         style="stroke:context-stroke;fill-rule:evenodd;fill:context-stroke;stroke-width:0.62500000;stroke-linejoin:round;"
         id="path24837" />
    </marker>
    <rect
       x="343.80006"
       y="393.51624"
       width="74.152954"
       height="117.12796"
       id="rect11390" />
    <linearGradient
       id="XMLID_1_"
       y2="166.71001"
       gradientUnits="userSpaceOnUse"
       y1="-8.0098"
       x2="119.02"
       x1="4.7349"
       gradientTransform="matrix(0.26458333,0,0,0.26458333,36.765568,122.60418)">
      <stop
         style="stop-color:#FFFFFF"
         offset="0"
         id="stop8823" />
      <stop
         style="stop-color:#909090"
         offset="1"
         id="stop8825" />
      <a:midPointStop
         style="stop-color:#FFFFFF"
         offset="0" />
      <a:midPointStop
         style="stop-color:#FFFFFF"
         offset="0.5" />
      <a:midPointStop
         style="stop-color:#909090"
         offset="1" />
    </linearGradient>
    <linearGradient
       id="XMLID_2_"
       y2="103.19"
       gradientUnits="userSpaceOnUse"
       y1="-10.109"
       x2="97.955002"
       x1="23.85"
       gradientTransform="matrix(0.26458333,0,0,0.26458333,36.765568,122.60418)">
      <stop
         style="stop-color:#FFFFFF"
         offset="0"
         id="stop8830" />
      <stop
         style="stop-color:#FBFBFB"
         offset=".2961"
         id="stop8832" />
      <stop
         style="stop-color:#F1F1F1"
         offset=".5618"
         id="stop8834" />
      <stop
         style="stop-color:#DEDEDE"
         offset=".815"
         id="stop8836" />
      <stop
         style="stop-color:#CCCCCC"
         offset="1"
         id="stop8838" />
      <a:midPointStop
         style="stop-color:#FFFFFF"
         offset="0" />
      <a:midPointStop
         style="stop-color:#FFFFFF"
         offset="0.7288" />
      <a:midPointStop
         style="stop-color:#CCCCCC"
         offset="1" />
    </linearGradient>
    <linearGradient
       inkscape:collect="always"
       xlink:href="#XMLID_1_"
       id="linearGradient71236"
       gradientUnits="userSpaceOnUse"
       gradientTransform="matrix(0.26458333,0,0,0.26458333,36.765568,122.60418)"
       x1="4.7349"
       y1="-8.0098"
       x2="119.02"
       y2="166.71001" />
    <linearGradient
       inkscape:collect="always"
       xlink:href="#XMLID_1_"
       id="linearGradient73710"
       gradientUnits="userSpaceOnUse"
       gradientTransform="matrix(0.26458333,0,0,0.26458333,36.765568,122.60418)"
       x1="4.7349"
       y1="-8.0098"
       x2="119.02"
       y2="166.71001" />
    <style
       id="style2">.a737459c-e8c7-4afa-8008-f6cfd15ccda2{fill:#e00;}</style>
    <style
       id="style77680">.cls-1{fill:#e9500e;}</style>
  </defs>
  <g
     inkscape:label="Layer 1"
     inkscape:groupmode="layer"
     id="layer1">
    <text
       xml:space="preserve"
       style="font-size:4.93889px;line-height:1.25;font-family:'Roboto Mono';-inkscape-font-specification:'Roboto Mono';stroke-width:0.264583"
       x="33.024426"
       y="15.136755"
       id="text1330"><tspan
         sodipodi:role="line"
         id="tspan1328"
         style="font-style:normal;font-variant:normal;font-weight:bold;font-stretch:normal;font-size:4.93889px;font-family:'CMU Serif';-inkscape-font-specification:'CMU Serif';stroke-width:0.264583"
         x="33.024426"
         y="15.136755">Dependency Management in C++/Fortran</tspan></text>
    <text
       xml:space="preserve"
       style="font-size:7.05556px;line-height:1.25;font-family:'Roboto Mono';-inkscape-font-specification:'Roboto Mono';stroke-width:0.264583"
       x="21.953262"
       y="114.50962"
       id="text4276"><tspan
         sodipodi:role="line"
         id="tspan4274"
         style="stroke-width:0.264583"
         x="21.953262"
         y="114.50962">CMake</tspan></text>
    <text
       xml:space="preserve"
       style="font-size:7.05556px;line-height:1.25;font-family:'Roboto Mono';-inkscape-font-specification:'Roboto Mono';stroke-width:0.264583"
       x="20.878773"
       y="142.08827"
       id="text5296"><tspan
         sodipodi:role="line"
         id="tspan5294"
         style="stroke-width:0.264583"
         x="20.878773"
         y="142.08827">Header only libraries</tspan></text>
    <text
       xml:space="preserve"
       style="font-size:7.05556px;line-height:1.25;font-family:'Roboto Mono';-inkscape-font-specification:'Roboto Mono';stroke-width:0.264583"
       x="21.595093"
       y="122.03107"
       id="text5798"><tspan
         sodipodi:role="line"
         id="tspan5796"
         style="stroke-width:0.264583"
         x="21.595093"
         y="122.03107">System Package Manager + Git</tspan></text>
    <text
       xml:space="preserve"
       style="font-size:7.05556px;line-height:1.25;font-family:'Roboto Mono';-inkscape-font-specification:'Roboto Mono';stroke-width:0.264583"
       x="20.520607"
       y="131.70151"
       id="text7444"><tspan
         sodipodi:role="line"
         id="tspan7442"
         style="stroke-width:0.264583"
         x="20.520607"
         y="131.70151">Add dependency source to source tree</tspan></text>
    <text
       xml:space="preserve"
       transform="scale(0.26458333)"
       id="text11388"
       style="line-height:1.25;font-family:'Roboto Mono';font-size:26.66666667px;-inkscape-font-specification:'Roboto Mono';white-space:pre;shape-inside:url(#rect11390)" />
    <g
       id="g13927"
       transform="matrix(0.79988972,0,0,0.79988972,6.0284396,83.916837)">
      <g
         id="g9087"
         transform="matrix(0.42250125,0,0,0.42250125,102.60897,-33.537033)">
        <path
           stroke-width="0.79375"
           i:knockout="Off"
           d="m 68.854234,125.42464 v 35.95687 H 37.162443 v -38.38046 h 28.458583 l -0.01667,2.43999 3.249084,-0.0164 z"
           fill="url(#XMLID_1_)"
           id="path8828"
           style="fill:url(#XMLID_1_);stroke:#000000" />
        <path
           stroke-width="0.79375"
           i:knockout="Off"
           d="M 39.646351,126.26231 H 60.107374"
           fill="none"
           id="path8843"
           style="stroke:#000000" />
      </g>
      <text
         xml:space="preserve"
         style="font-size:4.03817px;line-height:1.25;font-family:'Roboto Mono';-inkscape-font-specification:'Roboto Mono';stroke-width:0.151431"
         x="120.1496"
         y="28.033556"
         id="text2192"><tspan
           sodipodi:role="line"
           id="tspan2190"
           style="stroke-width:0.151431"
           x="120.1496"
           y="28.033556">Make</tspan></text>
    </g>
    <path
       style="fill:none;stroke:#000000;stroke-width:1;stroke-linecap:butt;stroke-linejoin:miter;stroke-miterlimit:4;stroke-dasharray:none;stroke-opacity:1;marker-end:url(#Arrow1Mend)"
       d="M 24.747494,13.377024 V 98.321125"
       id="path24814" />
    <text
       xml:space="preserve"
       style="font-style:normal;font-variant:normal;font-weight:normal;font-stretch:normal;font-size:4.93889px;line-height:1.25;font-family:'CMU Serif';-inkscape-font-specification:'CMU Serif';stroke-width:0.264583"
       x="-77.196991"
       y="20.722574"
       id="text25182"
       transform="rotate(-90)"><tspan
         sodipodi:role="line"
         id="tspan25180"
         style="font-style:normal;font-variant:normal;font-weight:bold;font-stretch:normal;font-size:4.93889px;font-family:'CMU Serif';-inkscape-font-specification:'CMU Serif';stroke-width:0.264583"
         x="-77.196991"
         y="20.722574">Increasing Complexity</tspan></text>
    <text
       xml:space="preserve"
       style="font-size:3.175px;line-height:1.25;font-family:'Roboto Mono';-inkscape-font-specification:'Roboto Mono';stroke-width:0.264583"
       x="31.713572"
       y="19.818712"
       id="text66074"><tspan
         sodipodi:role="line"
         style="font-style:normal;font-variant:normal;font-weight:normal;font-stretch:normal;font-size:3.175px;font-family:'CMU Serif';-inkscape-font-specification:'CMU Serif';stroke-width:0.264583"
         x="31.713572"
         y="19.818712"
         id="tspan66072">1) Simply add all dependencies to source tree of your project.</tspan></text>
    <text
       xml:space="preserve"
       style="font-size:3.175px;line-height:1.25;font-family:'Roboto Mono';-inkscape-font-specification:'Roboto Mono';stroke-width:0.264583"
       x="31.713572"
       y="30.966232"
       id="text68871"><tspan
         sodipodi:role="line"
         style="font-style:normal;font-variant:normal;font-weight:normal;font-stretch:normal;font-size:3.175px;font-family:'CMU Serif';-inkscape-font-specification:'CMU Serif';stroke-width:0.264583"
         x="31.713572"
         y="30.966232"
         id="tspan68869">2) Use a system package manager, and source from repositories such as</tspan><tspan
         sodipodi:role="line"
         style="font-style:normal;font-variant:normal;font-weight:normal;font-stretch:normal;font-size:3.175px;font-family:'CMU Serif';-inkscape-font-specification:'CMU Serif';stroke-width:0.264583"
         x="31.713572"
         y="34.951759"
         id="tspan69651">GitHub to install globally. These can then be found by buid systems.</tspan></text>
    <g
       id="g80867"
       transform="matrix(0.67644487,0,0,0.67644487,48.588732,8.6169284)">
      <g
         id="g70610"
         transform="matrix(0.61214942,0,0,0.61214942,73.889753,-0.9479519)"
         style="mix-blend-mode:normal;fill-opacity:1;fill-rule:nonzero">
        <g
           id="g70604"
           transform="matrix(0.42250125,0,0,0.42250125,102.60897,-33.537033)"
           style="fill-opacity:1;fill-rule:nonzero">
          <path
             stroke-width="0.79375"
             i:knockout="Off"
             d="m 68.854234,125.42464 v 35.95687 H 37.162443 v -38.38046 h 28.458583 l -0.01667,2.43999 3.249084,-0.0164 z"
             fill="url(#XMLID_1_)"
             id="path70600"
             style="fill:url(#linearGradient73710);fill-opacity:1;fill-rule:nonzero;stroke:#000000" />
          <path
             stroke-width="0.79375"
             i:knockout="Off"
             d="M 39.646351,126.26231 H 60.107374"
             fill="none"
             id="path70602"
             style="fill-opacity:1;fill-rule:nonzero;stroke:#000000" />
        </g>
        <text
           xml:space="preserve"
           style="font-size:4.03817px;line-height:1.25;font-family:'Roboto Mono';-inkscape-font-specification:'Roboto Mono';fill-opacity:1;fill-rule:nonzero;stroke-width:0.151431"
           x="120.1496"
           y="28.033556"
           id="text70608"><tspan
             sodipodi:role="line"
             id="tspan70606"
             style="fill-opacity:1;fill-rule:nonzero;stroke-width:0.151431"
             x="120.1496"
             y="28.033556">Ext.</tspan><tspan
             sodipodi:role="line"
             style="fill-opacity:1;fill-rule:nonzero;stroke-width:0.151431"
             x="120.1496"
             y="33.081268"
             id="tspan70834">Lib</tspan></text>
      </g>
      <g
         id="g71234"
         transform="matrix(0.79988972,0,0,0.79988972,38.092623,-7.3320344)">
        <g
           id="g71228"
           transform="matrix(0.32333694,0,0,0.32333694,130.34202,-13.174187)">
          <path
             stroke-width="0.79375"
             i:knockout="Off"
             d="m 68.854234,125.42464 v 35.95687 H 37.162443 v -38.38046 h 28.458583 l -0.01667,2.43999 3.249084,-0.0164 z"
             fill="url(#XMLID_1_)"
             id="path71224"
             style="fill:url(#linearGradient71236);stroke:#000000" />
          <path
             stroke-width="0.79375"
             i:knockout="Off"
             d="M 39.646351,126.26231 H 60.107374"
             fill="none"
             id="path71226"
             style="stroke:#000000" />
        </g>
        <text
           xml:space="preserve"
           style="font-size:3.09038px;line-height:1.25;font-family:'Roboto Mono';-inkscape-font-specification:'Roboto Mono';stroke-width:0.115889"
           x="144.87347"
           y="34.388409"
           id="text71232"><tspan
             sodipodi:role="line"
             id="tspan71230"
             style="stroke-width:0.115889"
             x="144.87347"
             y="34.388409">src</tspan></text>
      </g>
    </g>
    <g
       id="g80909"
       transform="matrix(0.74961407,0,0,0.74961407,25.337165,10.443931)">
      <g
         id="g80852">
        <g
           id="g80794">
          <g
             style="clip-rule:evenodd;fill-rule:evenodd;stroke-linejoin:round"
             id="g10616"
             transform="matrix(0.05502159,0,0,0.05502159,146.45811,26.90642)">
            <g
               id="Group"
               transform="translate(5.782,3.414)">
        <g
   id="Path"
   transform="translate(13)">
            <g
   transform="translate(24)"
   id="g10582">
                <path
   d="M 31.758,46.916 C 32.498,23.429 24.586,9.582 1.841,0.435 -4.624,23.049 22.066,43.9 31.758,46.916 Z"
   style="fill:#d1d3d4;stroke:#000000;stroke-width:4.79px"
   id="path10580" />

            </g>

            <path
   d="M 117.441,86.72 C 118.181,67.434 113.31,59.65 109.654,54.084 105.945,48.892 97.045,40.732 86.11,40.39 75.769,40.066 73.282,45.782 63.742,46.127 62.178,28.755 75.289,19.222 75.289,19.222 c 0,0 -3.585,-5.067 -6.551,-6.305 C 64.472,16.708 52.73,29.353 55.447,45.625 46.669,43.947 40.473,38.923 31.252,40.737 18.69,43.209 8.335,50.804 2.433,67.47 c -5.901,16.667 2.083,36.111 3.819,41.664 1.737,5.558 14.584,29.164 24.653,32.638 10.067,3.475 10.07,1.909 15.452,-0.173 5.383,-2.083 13.54,-5.902 25.522,-1.561 11.975,4.339 13.537,5.379 21,0.519 7.469,-4.859 17.188,-19.962 19.443,-24.303 2.257,-4.339 3.473,-6.597 4.17,-8.853 7.256,-3.621 0.283,-3.397 0.949,-20.681 z"
   style="fill:#d1d3d4;stroke:#000000;stroke-width:4.79px"
   id="path10584" />

        </g>

        <g
   transform="translate(4,112)"
   id="g10592">
            <path
   id="Shape"
   d="m 145.932,115.67 c 4.785,0.017 9.38,-1.871 12.769,-5.248 3.39,-3.377 5.295,-7.965 5.295,-12.75 0.002,-18.273 0.002,-46.51 0.002,-64.833 0,-4.774 -1.896,-9.352 -5.272,-12.728 -3.376,-3.376 -7.954,-5.272 -12.728,-5.272 H 131.16 c -2.209,0 -4,-1.791 -4,-4 V 1.409 H 10.13 c 0,0 0.258,120.539 0.295,138.213 0.003,1.363 0.7,2.632 1.85,3.365 5.212,3.018 21.921,8.75 57.004,8.75 35.825,0 51.839,-7.674 56.424,-11.139 0.911,-0.756 1.438,-1.878 1.438,-3.062 0.019,-3.825 0.019,-12.688 0.019,-17.924 0,-1.075 0.433,-2.105 1.201,-2.857 0.768,-0.753 1.807,-1.164 2.882,-1.142 4.401,0.062 9.674,0.071 14.689,0.057 z M 127.16,35.864 c 0,-1.326 0.527,-2.598 1.464,-3.536 0.938,-0.937 2.21,-1.464 3.536,-1.464 h 12.738 c 1.326,0 2.598,0.527 3.536,1.464 0.937,0.938 1.464,2.21 1.464,3.536 v 58.185 c 0,1.326 -0.527,2.598 -1.464,3.536 -0.938,0.937 -2.21,1.464 -3.536,1.464 H 132.16 c -1.326,0 -2.598,-0.527 -3.536,-1.464 -0.937,-0.938 -1.464,-2.21 -1.464,-3.536 z"
   style="fill:#ffffff;fill-rule:nonzero;stroke:#000000;stroke-width:4.79px" />

            <path
   id="Path1"
   serif:id="Path"
   d="m 21.667,0.249 v 123.986 c 0,1.431 0.764,2.753 2.003,3.467 5.061,2.412 19.743,8.169 45.484,8.169 25.912,0 40.158,-6.995 44.928,-9.878 1.139,-0.734 1.827,-1.997 1.827,-3.351 C 115.92,106.201 115.92,0.249 115.92,0.249 Z"
   style="fill:#fbb040" />

            <g
   id="Path2"
   serif:id="Path"
   transform="matrix(1,0,0,0.849312,0,21.0375)">
                <path
   d="M 35.521,0.249 V 113.065"
   style="fill:none;stroke:#ffdb96;stroke-width:11.96px;stroke-linecap:round;stroke-linejoin:miter"
   id="path10589" />

            </g>

        </g>

        <g
   id="Path3"
   serif:id="Path"
   transform="translate(-2,-2)">
            <path
   d="m 94.773,139.692 c 0,-2 -1.177,-4.388 -3.11,-5.587 -3.145,-1.903 -5.604,-4.822 -6.942,-8.3 -25.591,0.861 -48.949,-3.633 -60.716,-6.806 -3.021,-0.856 -6.081,-1.567 -9.171,-2.13 -7.043,-1.397 -12.396,-7.582 -12.396,-15.018 0,-8.185 6.494,-14.836 14.608,-15.127 1.565,-8.657 9.121,-15.229 18.229,-15.229 10.242,0 18.544,8.304 18.544,18.545 0,2.155 -0.389,4.218 -1.064,6.144 l 0.055,0.009 c 2.287,-7.153 8.983,-12.336 16.896,-12.336 7.862,0 14.522,5.122 16.848,12.208 -0.067,-0.639 -0.101,-1.289 -0.101,-1.947 0,-10.652 8.634,-19.286 19.284,-19.286 8.622,0 15.919,5.659 18.388,13.462 l 1.681,-0.438 c 2.198,-1.239 4.729,-1.955 7.432,-1.955 8.369,0 15.154,6.785 15.151,15.152 0,7.666 -5.691,14.001 -13.079,15.012 -1.673,0.237 -3.314,0.663 -4.891,1.27 -4.391,1.655 -8.881,3.027 -13.417,4.159 -0.226,2.236 -0.892,4.342 -1.909,6.231 -1.84,3.452 -2.665,7.355 -2.38,11.257 -0.002,0.236 0.007,1.472 0.007,1.71 0,4.956 -4.016,7.972 -8.976,7.972 -4.953,0 -8.971,-4.015 -8.971,-8.972 z"
   style="fill:#ffffff;stroke:#000000;stroke-width:4.79px;stroke-linecap:round"
   id="path10594" />

        </g>

    </g>
          </g>
          <text
             xml:space="preserve"
             style="font-size:3.175px;line-height:1.25;font-family:'Roboto Mono';-inkscape-font-specification:'Roboto Mono';stroke-width:0.264583"
             x="147.21515"
             y="44.785213"
             id="text76822"><tspan
               sodipodi:role="line"
               id="tspan76820"
               style="font-size:3.175px;stroke-width:0.264583"
               x="147.21515"
               y="44.785213">brew</tspan></text>
        </g>
        <g
           id="g80817">
          <g
             id="g80777">
            <text
               xml:space="preserve"
               style="font-size:3.175px;line-height:1.25;font-family:'Roboto Mono';-inkscape-font-specification:'Roboto Mono';stroke-width:0.264583"
               x="162.54399"
               y="53.30901"
               id="text75554"><tspan
                 sodipodi:role="line"
                 id="tspan75552"
                 style="font-size:3.175px;stroke-width:0.264583"
                 x="162.54399"
                 y="53.30901">yum</tspan></text>
            <g
               id="g77643"
               transform="matrix(0.06284134,0,0,0.06284134,159.34039,42.305864)">
              <path
                 class="a737459c-e8c7-4afa-8008-f6cfd15ccda2"
                 d="m 128,84 c 12.5,0 30.6,-2.6 30.6,-17.5 a 19.53,19.53 0 0 0 -0.3,-3.4 L 150.9,30.7 C 149.2,23.6 147.7,20.3 135.2,14.1 125.5,9.1 104.4,1 98.1,1 92.2,1 90.5,8.5 83.6,8.5 76.9,8.5 72,2.9 65.7,2.9 c -6,0 -9.9,4.1 -12.9,12.5 0,0 -8.4,23.7 -9.5,27.2 a 6.15,6.15 0 0 0 -0.2,1.9 C 43,53.7 79.3,83.9 128,84 m 32.5,-11.4 c 1.7,8.2 1.7,9.1 1.7,10.1 0,14 -15.7,21.8 -36.4,21.8 C 79,104.5 38.1,77.1 38.1,59 a 18.35,18.35 0 0 1 1.5,-7.3 C 22.8,52.5 1,55.5 1,74.7 1,106.2 75.6,145 134.6,145 c 45.3,0 56.7,-20.5 56.7,-36.7 0,-12.7 -11,-27.1 -30.8,-35.7"
                 id="path8"
                 inkscape:connector-curvature="0"
                 style="fill:#ee0000" />
              <path
                 d="m 160.5,72.6 c 1.7,8.2 1.7,9.1 1.7,10.1 0,14 -15.7,21.8 -36.4,21.8 C 79,104.5 38.1,77.1 38.1,59 a 18.35,18.35 0 0 1 1.5,-7.3 l 3.7,-9.1 a 6.15,6.15 0 0 0 -0.2,1.9 c 0,9.2 36.3,39.4 84.9,39.4 12.5,0 30.6,-2.6 30.6,-17.5 A 19.53,19.53 0 0 0 158.3,63 Z"
                 id="path10"
                 inkscape:connector-curvature="0" />
            </g>
          </g>
          <g
             id="g80770">
            <text
               xml:space="preserve"
               style="font-size:3.175px;line-height:1.25;font-family:'Roboto Mono';-inkscape-font-specification:'Roboto Mono';stroke-width:0.264583"
               x="162.53236"
               y="37.786636"
               id="text75308"><tspan
                 sodipodi:role="line"
                 id="tspan75306"
                 style="font-size:3.175px;stroke-width:0.264583"
                 x="162.53236"
                 y="37.786636">apt</tspan></text>
            <g
               id="g77706"
               transform="matrix(0.01146719,0,0,0.01146719,160.98259,26.267885)">
              <circle
                 class="cls-1"
                 cx="109.02696"
                 cy="348.09412"
                 r="109.02696"
                 id="circle77684" />
              <circle
                 class="cls-1"
                 cx="563.08368"
                 cy="109.02698"
                 r="109.02698"
                 id="circle77686" />
              <path
                 class="cls-1"
                 d="m 492.48194,1336.6658 a 265.52505,265.52505 0 0 1 -181.0712,-138.0982 156.94784,156.94784 0 0 1 -93.21911,11.4583 354.93524,354.93524 0 0 0 255.53723,214.1645 359.20777,359.20777 0 0 0 77.41949,7.967 156.00313,156.00313 0 0 1 -31.92236,-91.1546 c -8.97977,-0.9975 -17.94864,-2.4548 -26.74405,-4.337 z"
                 transform="translate(-137.56155,-707.97998)"
                 id="path77688" />
              <circle
                 class="cls-1"
                 cx="538.52045"
                 cy="629.28723"
                 r="109.02698"
                 id="circle77690" />
              <path
                 class="cls-1"
                 d="m 827.798,1297.221 a 356.70056,356.70056 0 0 0 17.87483,-418.519 157.14441,157.14441 0 0 1 -61.30975,71.8031 267.293,267.293 0 0 1 -8.73688,265.4884 156.34677,156.34677 0 0 1 52.1718,81.2275 z"
                 transform="translate(-137.56155,-707.97998)"
                 id="path77692" />
              <path
                 class="cls-1"
                 d="m 238.17644,899.71906 q 4.1505,-0.22779 8.30533,-0.22553 a 157.34626,157.34626 0 0 1 82.68239,23.54547 265.90653,265.90653 0 0 1 214.10822,-114.50934 158.0877,158.0877 0 0 1 33.076,-88.42022 C 439.24549,709.25177 306.02421,780.001 238.17644,899.71906 Z"
                 transform="translate(-137.56155,-707.97998)"
                 id="path77694" />
            </g>
          </g>
        </g>
      </g>
      <g
         id="g80799"
         transform="translate(0,4.7900398)">
        <path
           fill="#f05133"
           d="m 193.3401,32.48341 -5.37947,-5.379217 c -0.30975,-0.309876 -0.81218,-0.309876 -1.1222,0 l -1.11695,1.117221 1.4169,1.416915 c 0.32933,-0.111298 0.70692,-0.0366 0.96933,0.225939 0.26403,0.264148 0.33804,0.644965 0.22393,0.975487 l 1.36583,1.365693 c 0.33053,-0.113981 0.7116,-0.04025 0.97548,0.224058 0.36875,0.368749 0.36875,0.966243 0,1.33526 -0.36901,0.368873 -0.96649,0.368873 -1.33565,0 -0.27729,-0.277572 -0.34594,-0.685198 -0.20529,-1.026853 l -1.27384,-1.273705 v 3.351806 c 0.0898,0.04453 0.17472,0.103781 0.24954,0.178606 0.36875,0.368742 0.36875,0.966235 0,1.335384 -0.36874,0.368607 -0.96664,0.368607 -1.33511,0 -0.36874,-0.369275 -0.36874,-0.966776 0,-1.335384 0.0912,-0.09105 0.1967,-0.159965 0.30934,-0.206093 v -3.383049 c -0.11264,-0.04614 -0.21789,-0.114372 -0.30934,-0.206094 -0.27931,-0.279175 -0.34649,-0.689215 -0.20328,-1.032216 l -1.3968,-1.397062 -3.68877,3.688365 c -0.30989,0.310152 -0.30989,0.812575 0,1.122449 l 5.37976,5.379361 c 0.30975,0.309884 0.81203,0.309884 1.12218,0 l 5.35441,-5.354412 c 0.30989,-0.309876 0.30989,-0.812583 0,-1.122459 z"
           id="path9113"
           style="stroke-width:0.134088" />
        <text
           xml:space="preserve"
           style="font-size:3.175px;line-height:1.25;font-family:'Roboto Mono';-inkscape-font-specification:'Roboto Mono';stroke-width:0.264583"
           x="184.57411"
           y="43.142082"
           id="text78403"><tspan
             sodipodi:role="line"
             id="tspan78401"
             style="font-size:3.175px;stroke-width:0.264583"
             x="184.57411"
             y="43.142082">git</tspan></text>
      </g>
      <text
         xml:space="preserve"
         style="font-size:7.05556px;line-height:1.25;font-family:'Roboto Mono';-inkscape-font-specification:'Roboto Mono';stroke-width:0.264583"
         x="174.93719"
         y="42.456074"
         id="text79983"><tspan
           sodipodi:role="line"
           id="tspan79981"
           style="font-size:7.05556px;stroke-width:0.264583"
           x="174.93719"
           y="42.456074">+</tspan></text>
    </g>
    <text
       xml:space="preserve"
       style="font-size:3.175px;line-height:1.25;font-family:'Roboto Mono';-inkscape-font-specification:'Roboto Mono';stroke-width:0.264583"
       x="31.404516"
       y="53.8363"
       id="text80915"><tspan
         sodipodi:role="line"
         style="font-style:normal;font-variant:normal;font-weight:normal;font-stretch:normal;font-size:3.175px;font-family:'CMU Serif';-inkscape-font-specification:'CMU Serif';stroke-width:0.264583"
         x="31.404516"
         y="53.8363"
         id="tspan80913">3) Use a package manager </tspan></text>
  </g>
</svg>
